<?xml version="1.0" encoding="UTF-8"?>
<svg xmlns="http://www.w3.org/2000/svg" xmlns:xlink="http://www.w3.org/1999/xlink" width="503.89pt" height="110.7pt" viewBox="0 0 503.89 110.7" version="1.1">
<defs>
<clipPath id="clip1">
  <path d="M 291 98 L 311 98 L 311 110.699219 L 291 110.699219 Z M 291 98 "/>
</clipPath>
<clipPath id="clip2">
  <path d="M 441 3 L 503.890625 3 L 503.890625 110.699219 L 441 110.699219 Z M 441 3 "/>
</clipPath>
</defs>
<g id="surface1">
<path style=" stroke:none;fill-rule:nonzero;fill:rgb(0%,39.99939%,39.199829%);fill-opacity:1;" d="M 20.480469 103.824219 L 27.832031 103.824219 C 27.894531 103.824219 28.066406 103.785156 28.339844 103.714844 C 28.621094 103.644531 28.925781 103.511719 29.25 103.359375 C 29.644531 103.1875 30 102.957031 30.3125 102.660156 C 30.628906 102.378906 30.75 102.042969 30.699219 101.648438 C 30.578125 101.164063 30.222656 100.777344 29.625 100.484375 C 29.058594 100.203125 28.289063 100.050781 27.347656 100.050781 L 20.480469 100.050781 Z M 17.65625 98.601563 L 27.832031 98.601563 C 29.382813 98.601563 30.707031 98.886719 31.84375 99.441406 C 32.957031 99.988281 33.511719 100.726563 33.511719 101.648438 C 33.53125 101.6875 33.542969 101.730469 33.542969 101.761719 L 33.542969 101.902344 C 33.542969 102.0625 33.511719 102.257813 33.441406 102.480469 C 33.371094 102.691406 33.257813 102.914063 33.097656 103.128906 C 32.761719 103.625 32.1875 104.058594 31.40625 104.441406 C 30.605469 104.847656 29.503906 105.050781 28.074219 105.050781 L 20.480469 105.050781 L 20.480469 109.910156 L 17.65625 109.910156 "/>
<path style=" stroke:none;fill-rule:nonzero;fill:rgb(0%,39.99939%,39.199829%);fill-opacity:1;" d="M 61.910156 98.613281 L 64.738281 98.613281 L 64.738281 103.359375 L 75.875 103.359375 L 75.875 98.613281 L 78.738281 98.613281 L 78.738281 109.921875 L 75.875 109.921875 L 75.875 104.808594 L 64.738281 104.808594 L 64.738281 109.921875 L 61.910156 109.921875 "/>
<path style=" stroke:none;fill-rule:nonzero;fill:rgb(0%,39.99939%,39.199829%);fill-opacity:1;" d="M 118.933594 105.292969 L 115.867188 100.546875 L 112.292969 105.292969 Z M 113.984375 98.613281 L 117.527344 98.613281 L 125.558594 109.921875 L 122.257813 109.921875 L 119.867188 106.632813 L 111.59375 106.632813 L 109.457031 109.921875 L 106.15625 109.921875 "/>
<path style=" stroke:none;fill-rule:nonzero;fill:rgb(0%,39.99939%,39.199829%);fill-opacity:1;" d="M 163.441406 103.714844 C 163.503906 103.726563 163.566406 103.734375 163.636719 103.734375 L 163.808594 103.734375 C 164.730469 103.734375 165.507813 103.53125 166.136719 103.136719 C 166.773438 102.753906 167.109375 102.316406 167.128906 101.84375 L 167.128906 101.75 C 167.109375 101.324219 166.753906 100.929688 166.085938 100.566406 C 165.40625 100.199219 164.285156 99.988281 162.714844 99.9375 L 155.859375 99.9375 L 155.859375 103.714844 Z M 153.003906 98.613281 L 164.171875 98.613281 C 165.710938 98.613281 167.027344 98.875 168.109375 99.390625 C 169.195313 99.898438 169.851563 100.617188 170.085938 101.539063 C 170.085938 101.71875 170.046875 101.921875 170.003906 102.136719 C 169.972656 102.347656 169.894531 102.550781 169.769531 102.773438 C 169.578125 103.054688 169.285156 103.339844 168.871094 103.613281 C 168.445313 103.886719 167.816406 104.128906 166.996094 104.332031 C 168.101563 104.605469 168.808594 104.980469 169.121094 105.425781 C 169.4375 105.871094 169.601563 106.328125 169.609375 106.800781 L 169.609375 107.402344 C 169.601563 107.84375 169.640625 108.261719 169.730469 108.65625 C 169.8125 109.039063 170.175781 109.332031 170.796875 109.554688 L 170.796875 109.921875 L 167.242188 109.921875 C 167.109375 109.71875 166.984375 109.507813 166.914063 109.292969 C 166.855469 109.082031 166.816406 108.859375 166.785156 108.625 C 166.773438 108.523438 166.753906 108.421875 166.746094 108.300781 C 166.746094 108.191406 166.734375 108.089844 166.734375 107.976563 L 166.734375 107.804688 C 166.691406 107.15625 166.511719 106.558594 166.21875 106.023438 C 165.921875 105.507813 164.921875 105.183594 163.210938 105.0625 L 155.859375 105.0625 L 155.859375 109.921875 L 153.003906 109.921875 "/>
<path style=" stroke:none;fill-rule:nonzero;fill:rgb(0%,39.99939%,39.199829%);fill-opacity:1;" d="M 198.679688 98.613281 L 202.929688 98.613281 L 209.097656 108.097656 L 215.261719 98.613281 L 219.535156 98.613281 L 219.535156 109.921875 L 216.4375 109.921875 L 216.4375 100.910156 L 210.503906 109.921875 L 207.679688 109.921875 L 201.746094 101.042969 L 201.746094 109.921875 L 198.679688 109.921875 "/>
<path style=" stroke:none;fill-rule:nonzero;fill:rgb(0%,39.99939%,39.199829%);fill-opacity:1;" d="M 259.0625 105.292969 L 255.984375 100.546875 L 252.398438 105.292969 Z M 254.078125 98.613281 L 257.644531 98.613281 L 265.683594 109.921875 L 262.363281 109.921875 L 259.992188 106.632813 L 251.710938 106.632813 L 249.574219 109.921875 L 246.265625 109.921875 "/>
<g clip-path="url(#clip1)" clip-rule="nonzero">
<path style=" stroke:none;fill-rule:nonzero;fill:rgb(0%,39.99939%,39.199829%);fill-opacity:1;" d="M 291.542969 103.816406 C 291.59375 103.59375 291.664063 103.371094 291.734375 103.136719 C 292.140625 102.042969 293.0625 101.019531 294.519531 100.082031 C 295.957031 99.128906 298.242188 98.613281 301.402344 98.511719 C 301.910156 98.511719 302.476563 98.542969 303.125 98.589844 C 303.761719 98.652344 304.421875 98.753906 305.109375 98.90625 C 306.152344 99.128906 307.144531 99.511719 308.085938 100.039063 C 309.027344 100.554688 309.726563 101.304688 310.160156 102.277344 L 307.09375 102.277344 C 306.648438 101.457031 305.910156 100.839844 304.855469 100.445313 C 303.804688 100.039063 302.660156 99.835938 301.464844 99.835938 L 301.230469 99.835938 C 301.171875 99.835938 301.101563 99.847656 301.039063 99.847656 C 299.460938 99.917969 298.003906 100.3125 296.664063 101.050781 C 295.316406 101.78125 294.621094 102.84375 294.539063 104.21875 C 294.539063 105.882813 295.207031 107.085938 296.554688 107.816406 C 297.898438 108.554688 299.378906 108.929688 300.988281 108.9375 L 301.070313 108.9375 C 302.628906 108.9375 304.085938 108.65625 305.414063 108.089844 C 306.730469 107.511719 307.460938 106.753906 307.578125 105.808594 L 310.644531 105.808594 C 310.605469 105.941406 310.566406 106.074219 310.515625 106.214844 C 310.453125 106.355469 310.394531 106.488281 310.3125 106.640625 C 309.785156 107.550781 308.785156 108.402344 307.285156 109.152344 C 305.796875 109.921875 303.902344 110.296875 301.644531 110.296875 C 298.214844 110.347656 295.652344 109.789063 293.960938 108.613281 C 292.28125 107.429688 291.429688 106.054688 291.429688 104.472656 C 291.460938 104.25 291.492188 104.046875 291.542969 103.816406 "/>
</g>
<path style=" stroke:none;fill-rule:nonzero;fill:rgb(0%,39.99939%,39.199829%);fill-opacity:1;" d="M 345.171875 105.546875 L 336.648438 98.613281 L 340.191406 98.613281 L 346.609375 104.078125 L 352.746094 98.613281 L 356.3125 98.613281 L 348.019531 105.546875 L 348.019531 109.921875 L 345.171875 109.921875 "/>
<path style=" stroke:none;fill-rule:nonzero;fill:rgb(85.899353%,2.69928%,7.499695%);fill-opacity:1;" d="M 453.191406 98.765625 C 465.058594 86.015625 503.878906 43.703125 483.984375 23.992188 C 469.6875 10.070313 455.957031 30.453125 451.464844 40.878906 C 445.074219 32.195313 441.011719 22.835938 429.765625 19.355469 C 416.105469 14.71875 407.460938 23.992188 405.980469 36.160156 C 403.207031 54.710938 417.6875 79.636719 439.078125 95.878906 L 447.664063 103.625 "/>
<path style=" stroke:none;fill-rule:nonzero;fill:rgb(100%,100%,100%);fill-opacity:1;" d="M 473.636719 27.433594 C 478.121094 30.027344 486.210938 36.679688 479.316406 48.910156 C 479.152344 49.164063 478.820313 49.789063 478.300781 49.578125 C 477.839844 49.394531 477.96875 48.625 477.96875 48.625 C 478.535156 44.082031 478.730469 35.890625 472.816406 28.277344 C 472.816406 28.277344 472.347656 27.78125 472.664063 27.476563 C 472.976563 27.179688 473.339844 27.261719 473.636719 27.433594 "/>
<g clip-path="url(#clip2)" clip-rule="nonzero">
<path style=" stroke:none;fill-rule:nonzero;fill:rgb(0%,39.99939%,39.199829%);fill-opacity:1;" d="M 466.699219 6.019531 C 457.761719 8.675781 447.949219 15.367188 442.9375 24.050781 C 440.992188 27.425781 441.113281 30.777344 444.355469 32.839844 C 447.34375 34.734375 448.292969 34.574219 450.175781 33.710938 C 452.394531 32.710938 453.671875 29.964844 453.679688 29.925781 L 454.054688 29.238281 L 454.296875 28.792969 C 458.347656 21.792969 468.773438 15.0625 476.675781 13.960938 C 481.339844 13.289063 486.097656 14.789063 488.964844 17.542969 C 492.964844 21.398438 494.976563 26.300781 494.976563 30.90625 C 494.976563 42.238281 485.613281 55.742188 477.269531 66.738281 L 454.207031 96.484375 C 450.257813 101.335938 447.050781 106.316406 445.824219 110.699219 C 453.367188 102.632813 467.097656 86.441406 478.847656 72.765625 C 495.140625 53.800781 503.585938 39.28125 503.585938 26.734375 C 503.585938 20.316406 501.851563 14.554688 497.398438 10.03125 C 489.824219 2.296875 476.722656 2.882813 466.699219 6.019531 "/>
</g>
<path style=" stroke:none;fill-rule:nonzero;fill:rgb(0%,39.99939%,39.199829%);fill-opacity:1;" d="M 395.027344 34.796875 C 398.722656 19.121094 414.941406 12.390625 420.734375 12.085938 C 423.394531 11.933594 424.003906 12.238281 424.882813 12.460938 L 425.726563 12.671875 C 426.628906 12.835938 429.277344 12.773438 428.863281 8.753906 C 428.671875 7.023438 427.617188 4.449219 426.007813 3.710938 C 417.921875 0.0078125 388.160156 7.660156 389.933594 40.222656 C 390.5625 51.773438 397.515625 60.714844 405.546875 66.941406 C 405.546875 66.941406 390.835938 52.605469 395.027344 34.796875 "/>
<path style=" stroke:none;fill-rule:nonzero;fill:rgb(0%,39.99939%,39.199829%);fill-opacity:1;" d="M 70.03125 20.085938 C 70.617188 21.90625 70.933594 28.496094 70.945313 30.613281 C 70.945313 32.890625 69.203125 34.332031 66.628906 34.339844 C 63.847656 34.339844 62.511719 31.980469 61.558594 29.46875 C 59.53125 24.09375 53.476563 17.605469 43.890625 17.613281 C 29.136719 17.625 20.136719 30.652344 20.128906 46.410156 C 20.179688 54.578125 22.769531 75.132813 44.46875 75.101563 C 58.933594 75.082031 63.238281 63.589844 68.605469 63.589844 C 70.578125 63.609375 72.238281 65.160156 72.238281 66.960938 C 72.261719 72.855469 59.128906 83.496094 40.722656 83.515625 C 18.851563 83.535156 0.0390625 69.59375 0.0195313 48.363281 C 0 26.949219 20.21875 10.648438 42.644531 10.617188 C 50.695313 10.628906 59.886719 12.722656 66.621094 16.925781 C 68.070313 17.707031 69.515625 18.65625 70.03125 20.085938 "/>
<path style=" stroke:none;fill-rule:nonzero;fill:rgb(0%,39.99939%,39.199829%);fill-opacity:1;" d="M 113.164063 58.660156 C 110.519531 51.542969 107.695313 44.878906 104.234375 39.027344 C 100.871094 45.265625 98.078125 51.199219 95.222656 58.691406 Z M 92.964844 64.765625 C 90.496094 70.496094 89.9375 72.855469 89.929688 74.746094 C 89.949219 78.007813 94.109375 77.226563 94.097656 79.980469 C 94.117188 82.269531 91.488281 82.351563 88.90625 82.359375 L 82.335938 82.359375 C 79.945313 82.382813 77.769531 82.300781 77.757813 79.851563 C 77.777344 78.816406 78.566406 78.242188 79.457031 77.59375 C 80.746094 76.875 81.289063 76.558594 81.859375 75.234375 C 86 61.28125 92.875 45.71875 101.835938 30.199219 C 103.34375 27.605469 104.40625 27.445313 108.40625 27.445313 C 112.476563 27.433594 112.546875 27.75 114.09375 30.402344 C 122.507813 45.234375 128.554688 60.078125 134.171875 75.265625 C 134.484375 76.226563 135.234375 76.914063 136.570313 77.644531 C 137.535156 78.167969 138.101563 78.675781 138.101563 79.78125 C 138.101563 81.96875 135.945313 82.332031 134.019531 82.320313 L 120.484375 82.339844 C 118.632813 82.339844 115.574219 82.261719 115.59375 79.960938 C 115.574219 77.574219 119.035156 77.886719 119.015625 76.175781 C 119.035156 75.0625 118.539063 72.691406 115.402344 64.753906 "/>
<path style=" stroke:none;fill-rule:nonzero;fill:rgb(0%,39.99939%,39.199829%);fill-opacity:1;" d="M 163.242188 53.953125 C 170.765625 53.789063 182.003906 51.046875 181.992188 42.359375 C 181.972656 35.910156 176.695313 33.234375 170.359375 33.234375 C 163.707031 33.246094 163.222656 35.535156 163.230469 39.625 Z M 163.34375 72.855469 C 163.351563 75.152344 163.351563 76.355469 165.042969 77.15625 C 166.722656 77.976563 167.585938 78.433594 167.585938 79.75 C 167.59375 81.753906 165.429688 82.289063 163.664063 82.289063 L 148.4375 82.3125 C 146.6875 82.3125 144.511719 81.773438 144.511719 79.769531 C 144.511719 78.453125 145.402344 77.996094 146.515625 77.503906 C 148.609375 76.660156 148.753906 75.457031 148.753906 72.886719 L 148.722656 37.417969 C 148.722656 34.542969 148.722656 33.5 146.867188 33.054688 C 144.925781 32.535156 144.46875 31.867188 144.46875 30.523438 C 144.46875 28.519531 146.625 27.980469 148.386719 27.972656 L 176.847656 27.953125 C 181.160156 27.953125 186.203125 28.113281 190.132813 29.957031 C 194.636719 32.03125 197.59375 36.183594 197.585938 40.859375 C 197.585938 47.847656 191.855469 52.515625 185.445313 55.265625 C 190.667969 60.453125 193.867188 66.839844 196.59375 73.351563 C 197.644531 75.589844 198.109375 76.691406 200.4375 77.886719 C 201.480469 78.453125 202.363281 78.765625 202.363281 80.09375 C 202.363281 82.097656 199.730469 82.25 198.210938 82.269531 L 182.507813 82.28125 C 180.585938 82.28125 177.6875 82.351563 177.6875 79.800781 C 177.679688 77.601563 181.132813 77.816406 181.132813 75.730469 C 181.132813 71.953125 174.398438 61.726563 171.261719 58.476563 C 169.429688 58.914063 166.621094 59.265625 163.320313 59.683594 "/>
<path style=" stroke:none;fill-rule:nonzero;fill:rgb(0%,39.99939%,39.199829%);fill-opacity:1;" d="M 244.328125 40.070313 C 244.320313 34.574219 243.683594 33.855469 240.96875 33.03125 C 239.417969 32.589844 237.902344 32.222656 237.902344 30.429688 C 237.902344 27.992188 240.390625 27.890625 242.46875 27.890625 L 253.433594 27.878906 C 256.410156 27.871094 256.976563 27.953125 259.0625 30.046875 C 263.6875 34.492188 267.871094 39.523438 284.464844 62.152344 L 284.453125 37.15625 C 284.453125 34.390625 283.746094 33.722656 280.941406 32.628906 C 279.5625 32.101563 278.90625 31.597656 278.925781 30.199219 C 278.90625 27.929688 281.246094 27.847656 284.351563 27.847656 L 291.347656 27.859375 C 294.082031 27.847656 296.796875 27.921875 296.804688 30.179688 C 296.804688 31.566406 296.148438 32.09375 294.792969 32.609375 C 291.765625 33.792969 291.257813 34.097656 291.257813 37.144531 L 291.320313 77.398438 C 291.320313 82.007813 291.085938 82.683594 286.277344 82.695313 C 284.414063 82.707031 282.914063 82.695313 282.117188 81.511719 C 278.320313 76.246094 263.484375 56.238281 251.132813 41.863281 L 251.175781 72.957031 C 251.164063 75.660156 251.953125 76.40625 254.699219 77.429688 C 256.054688 77.957031 256.683594 78.484375 256.683594 79.921875 C 256.703125 82.136719 254.070313 82.21875 251.246094 82.210938 L 244.277344 82.21875 C 241.554688 82.21875 238.820313 82.148438 238.832031 79.929688 C 238.832031 78.515625 239.46875 77.976563 240.828125 77.453125 C 243.640625 76.40625 244.382813 75.820313 244.351563 72.964844 "/>
<path style=" stroke:none;fill-rule:nonzero;fill:rgb(0%,39.99939%,39.199829%);fill-opacity:1;" d="M 355.449219 53.546875 C 362.394531 53.535156 363.101563 54.347656 363.101563 56.046875 C 363.113281 57.757813 362.242188 59.691406 362.253906 64.683594 C 362.234375 69.199219 363.367188 72.328125 363.386719 73.421875 C 363.386719 75.859375 360.429688 77.945313 353.699219 80.226563 C 347.84375 82.261719 343.523438 83.222656 337.285156 83.234375 C 319.324219 83.242188 304.894531 73.179688 304.886719 55.691406 C 304.855469 37.855469 319.890625 26.714844 338.421875 26.695313 C 344.007813 26.695313 351.460938 28.042969 356.460938 30.625 C 357.800781 31.363281 359.09375 32.101563 359.824219 33.367188 C 360.492188 34.695313 360.449219 38.339844 360.460938 39.898438 C 360.460938 43.503906 359.175781 44.140625 357.515625 44.132813 C 355.671875 44.140625 354.863281 42.855469 354.296875 41.679688 C 351.632813 35.808594 346.660156 32.335938 339.878906 32.335938 C 326.320313 32.355469 320.511719 44.757813 320.511719 55.582031 C 320.511719 65.078125 326.046875 77.085938 337.972656 77.066406 C 340.726563 77.074219 344.414063 76.304688 346.476563 74.3125 C 348.707031 72.15625 348.785156 68.378906 348.785156 65.484375 C 348.785156 60.664063 348.382813 59.316406 342.855469 59.328125 C 338.835938 59.339844 336.617188 59.285156 336.617188 56.542969 C 336.617188 53.941406 338.835938 53.546875 342.53125 53.554688 "/>
<path style=" stroke:none;fill-rule:nonzero;fill:rgb(0%,39.99939%,39.199829%);fill-opacity:1;" d="M 213.296875 61.230469 C 213.289063 54.652344 212.964844 46.84375 210.714844 45.648438 C 209.742188 45.125 208.699219 44.777344 208.722656 43.605469 C 208.699219 42.238281 209.753906 41.640625 212.546875 40.890625 C 216.019531 40 220.558594 38.621094 223.039063 38.632813 C 226.269531 38.613281 226.339844 42.824219 226.339844 45.851563 L 226.367188 72.214844 C 226.378906 75.832031 226.378906 76.722656 227.5625 77.542969 C 228.839844 78.070313 229.570313 78.585938 229.578125 79.859375 C 229.570313 82.160156 227.5625 82.238281 225.8125 82.25 L 213.875 82.25 C 212.121094 82.261719 210.097656 82.160156 210.109375 79.871094 C 210.097656 78.605469 210.816406 78.089844 212.101563 77.5625 C 213.316406 76.742188 213.328125 75.839844 213.308594 72.226563 "/>
<path style=" stroke:none;fill-rule:nonzero;fill:rgb(85.899353%,2.69928%,7.499695%);fill-opacity:1;" d="M 228.847656 20.265625 C 228.847656 25.9375 224.242188 30.535156 218.5625 30.535156 C 212.882813 30.535156 208.285156 25.9375 208.285156 20.265625 C 208.285156 14.578125 212.882813 9.980469 218.5625 9.980469 C 224.242188 9.980469 228.847656 14.578125 228.847656 20.265625 "/>
<path style=" stroke:none;fill-rule:nonzero;fill:rgb(0%,39.99939%,39.199829%);fill-opacity:1;" d="M 370.71875 25.347656 L 372.753906 25.347656 C 373.1875 25.347656 373.53125 25.308594 373.765625 25.21875 C 374.007813 25.125 374.191406 24.984375 374.3125 24.78125 C 374.441406 24.589844 374.503906 24.367188 374.503906 24.132813 C 374.503906 23.789063 374.382813 23.507813 374.140625 23.292969 C 373.894531 23.0625 373.503906 22.960938 372.984375 22.960938 L 370.71875 22.960938 Z M 369.765625 29.378906 L 369.765625 22.167969 L 372.945313 22.167969 C 373.582031 22.167969 374.066406 22.230469 374.402344 22.363281 C 374.726563 22.492188 375 22.71875 375.191406 23.039063 C 375.394531 23.375 375.496094 23.738281 375.496094 24.132813 C 375.496094 24.640625 375.332031 25.078125 375 25.429688 C 374.675781 25.773438 374.171875 25.996094 373.472656 26.089844 C 373.722656 26.210938 373.914063 26.332031 374.046875 26.453125 C 374.320313 26.695313 374.59375 27.019531 374.828125 27.414063 L 376.074219 29.378906 L 374.886719 29.378906 L 373.9375 27.871094 C 373.664063 27.433594 373.429688 27.101563 373.257813 26.878906 C 373.074219 26.644531 372.914063 26.492188 372.78125 26.402344 C 372.628906 26.3125 372.488281 26.238281 372.347656 26.210938 C 372.234375 26.179688 372.0625 26.167969 371.820313 26.167969 L 370.71875 26.167969 L 370.71875 29.378906 "/>
<path style=" stroke:none;fill-rule:nonzero;fill:rgb(0%,39.99939%,39.199829%);fill-opacity:1;" d="M 366.3125 25.765625 C 366.3125 22.34375 369.085938 19.566406 372.507813 19.566406 C 375.929688 19.566406 378.726563 22.34375 378.726563 25.765625 C 378.726563 29.1875 375.929688 31.972656 372.507813 31.972656 C 369.085938 31.972656 366.3125 29.1875 366.3125 25.765625 M 365.300781 25.765625 C 365.300781 29.742188 368.539063 32.972656 372.507813 32.972656 C 376.488281 32.972656 379.726563 29.742188 379.726563 25.765625 C 379.726563 21.792969 376.488281 18.566406 372.507813 18.566406 C 368.539063 18.566406 365.300781 21.792969 365.300781 25.765625 "/>
</g>
</svg>
